{
	"asset":{
		"copyright":"Monstrous Software",
		"generator":"Khronos glTF Blender I/O v3.5.30",
		"version":"2.0"
	},
	"extensionsUsed":[
		"KHR_materials_ior",
		"KHR_materials_specular"
	],
	"scene":0,
	"scenes":[
		{
			"name":"Scene",
			"nodes":[
				0,
				1,
				2,
				3,
				4,
				5,
				6
			]
		}
	],
	"nodes":[
		{
			"mesh":0,
			"name":"ducky.LOD0",
			"translation":[
				40,
				0,
				0
			]
		},
		{
			"mesh":1,
			"name":"ducky.LOD1",
			"translation":[
				50,
				0,
				0
			]
		},
		{
			"mesh":2,
			"name":"ducky.LOD2",
			"translation":[
				60,
				0,
				0
			]
		},
		{
			"mesh":3,
			"name":"groundPlane",
			"scale":[
				20,
				1,
				20
			],
			"translation":[
				0,
				-1,
				0
			]
		},
		{
			"mesh":4,
			"name":"simplePalm.LOD0"
		},
		{
			"mesh":5,
			"name":"simplePalm.LOD1"
		},
		{
			"mesh":6,
			"name":"simplePalm.LOD2"
		}
	],
	"materials":[
		{
			"extensions":{
				"KHR_materials_specular":{
					"specularColorFactor":[
						0,
						0,
						0
					]
				},
				"KHR_materials_ior":{
					"ior":1.4500000476837158
				}
			},
			"name":"matte",
			"pbrMetallicRoughness":{
				"baseColorTexture":{
					"index":0
				},
				"metallicFactor":0,
				"roughnessFactor":0.5
			}
		},
		{
			"extensions":{
				"KHR_materials_specular":{
					"specularColorFactor":[
						0,
						0,
						0
					]
				},
				"KHR_materials_ior":{
					"ior":1.4500000476837158
				}
			},
			"name":"matte.001",
			"pbrMetallicRoughness":{
				"baseColorTexture":{
					"index":1
				},
				"metallicFactor":0,
				"roughnessFactor":0.5
			}
		},
		{
			"extensions":{
				"KHR_materials_specular":{
					"specularColorFactor":[
						0,
						0,
						0
					]
				},
				"KHR_materials_ior":{
					"ior":1.4500000476837158
				}
			},
			"name":"matte.002",
			"pbrMetallicRoughness":{
				"baseColorTexture":{
					"index":2
				},
				"metallicFactor":0,
				"roughnessFactor":0.5
			}
		},
		{
			"extensions":{
				"KHR_materials_specular":{
					"specularColorFactor":[
						0,
						0,
						0
					]
				},
				"KHR_materials_ior":{
					"ior":1.4500000476837158
				}
			},
			"name":"ground",
			"pbrMetallicRoughness":{
				"baseColorFactor":[
					0.0874081552028656,
					0.23955202102661133,
					0.023957258090376854,
					1
				],
				"metallicFactor":0,
				"roughnessFactor":0.5
			}
		}
	],
	"meshes":[
		{
			"name":"Cube.003",
			"primitives":[
				{
					"attributes":{
						"POSITION":0,
						"TEXCOORD_0":1,
						"NORMAL":2
					},
					"indices":3,
					"material":0
				}
			]
		},
		{
			"name":"Cube.001",
			"primitives":[
				{
					"attributes":{
						"POSITION":4,
						"TEXCOORD_0":5,
						"NORMAL":6
					},
					"indices":7,
					"material":1
				}
			]
		},
		{
			"name":"Cube.002",
			"primitives":[
				{
					"attributes":{
						"POSITION":8,
						"TEXCOORD_0":9,
						"NORMAL":10
					},
					"indices":11,
					"material":2
				}
			]
		},
		{
			"name":"Cube",
			"primitives":[
				{
					"attributes":{
						"POSITION":12,
						"TEXCOORD_0":13,
						"NORMAL":14
					},
					"indices":15,
					"material":3
				}
			]
		},
		{
			"name":"Cylinder.013",
			"primitives":[
				{
					"attributes":{
						"POSITION":16,
						"TEXCOORD_0":17,
						"NORMAL":18
					},
					"indices":19,
					"material":0
				}
			]
		},
		{
			"name":"Cylinder.006",
			"primitives":[
				{
					"attributes":{
						"POSITION":20,
						"TEXCOORD_0":21,
						"NORMAL":22
					},
					"indices":19,
					"material":0
				}
			]
		},
		{
			"name":"Cylinder.007",
			"primitives":[
				{
					"attributes":{
						"POSITION":23,
						"TEXCOORD_0":24,
						"NORMAL":25
					},
					"indices":19,
					"material":0
				}
			]
		}
	],
	"textures":[
		{
			"sampler":0,
			"source":0
		},
		{
			"sampler":0,
			"source":0
		},
		{
			"sampler":0,
			"source":0
		}
	],
	"images":[
		{
			"mimeType":"image/png",
			"name":"palette",
			"uri":"textures/palette.png"
		}
	],
	"accessors":[
		{
			"bufferView":0,
			"componentType":5126,
			"count":4422,
			"max":[
				6.537764549255371,
				18.992679595947266,
				5.318828105926514
			],
			"min":[
				-6.537764549255371,
				0.2747199535369873,
				-5.2085089683532715
			],
			"type":"VEC3"
		},
		{
			"bufferView":1,
			"componentType":5126,
			"count":4422,
			"type":"VEC2"
		},
		{
			"bufferView":2,
			"componentType":5126,
			"count":4422,
			"type":"VEC3"
		},
		{
			"bufferView":3,
			"componentType":5123,
			"count":21852,
			"type":"SCALAR"
		},
		{
			"bufferView":4,
			"componentType":5126,
			"count":2203,
			"max":[
				6.537764549255371,
				18.989383697509766,
				5.318559646606445
			],
			"min":[
				-6.537764549255371,
				0.2747199535369873,
				-5.209059238433838
			],
			"type":"VEC3"
		},
		{
			"bufferView":5,
			"componentType":5126,
			"count":2203,
			"type":"VEC2"
		},
		{
			"bufferView":6,
			"componentType":5126,
			"count":2203,
			"type":"VEC3"
		},
		{
			"bufferView":7,
			"componentType":5123,
			"count":9228,
			"type":"SCALAR"
		},
		{
			"bufferView":8,
			"componentType":5126,
			"count":987,
			"max":[
				6.546219825744629,
				18.976808547973633,
				5.22209358215332
			],
			"min":[
				-6.546219825744629,
				0.27856701612472534,
				-5.204766273498535
			],
			"type":"VEC3"
		},
		{
			"bufferView":9,
			"componentType":5126,
			"count":987,
			"type":"VEC2"
		},
		{
			"bufferView":10,
			"componentType":5126,
			"count":987,
			"type":"VEC3"
		},
		{
			"bufferView":11,
			"componentType":5123,
			"count":3075,
			"type":"SCALAR"
		},
		{
			"bufferView":12,
			"componentType":5126,
			"count":24,
			"max":[
				1,
				1,
				1
			],
			"min":[
				-1,
				-1,
				-1
			],
			"type":"VEC3"
		},
		{
			"bufferView":13,
			"componentType":5126,
			"count":24,
			"type":"VEC2"
		},
		{
			"bufferView":14,
			"componentType":5126,
			"count":24,
			"type":"VEC3"
		},
		{
			"bufferView":15,
			"componentType":5123,
			"count":36,
			"type":"SCALAR"
		},
		{
			"bufferView":16,
			"componentType":5126,
			"count":3160,
			"max":[
				23.744861602783203,
				109.08636474609375,
				43.01551818847656
			],
			"min":[
				-43.80747604370117,
				-5.535104751586914,
				-33.64893341064453
			],
			"type":"VEC3"
		},
		{
			"bufferView":17,
			"componentType":5126,
			"count":3160,
			"type":"VEC2"
		},
		{
			"bufferView":18,
			"componentType":5126,
			"count":3160,
			"type":"VEC3"
		},
		{
			"bufferView":19,
			"componentType":5123,
			"count":6306,
			"type":"SCALAR"
		},
		{
			"bufferView":20,
			"componentType":5126,
			"count":3160,
			"max":[
				23.744861602783203,
				109.08636474609375,
				43.01551818847656
			],
			"min":[
				-43.80747604370117,
				-5.535104751586914,
				-33.64893341064453
			],
			"type":"VEC3"
		},
		{
			"bufferView":21,
			"componentType":5126,
			"count":3160,
			"type":"VEC2"
		},
		{
			"bufferView":22,
			"componentType":5126,
			"count":3160,
			"type":"VEC3"
		},
		{
			"bufferView":23,
			"componentType":5126,
			"count":3160,
			"max":[
				23.744861602783203,
				109.08636474609375,
				43.01551818847656
			],
			"min":[
				-43.80747604370117,
				-5.535104751586914,
				-33.64893341064453
			],
			"type":"VEC3"
		},
		{
			"bufferView":24,
			"componentType":5126,
			"count":3160,
			"type":"VEC2"
		},
		{
			"bufferView":25,
			"componentType":5126,
			"count":3160,
			"type":"VEC3"
		}
	],
	"bufferViews":[
		{
			"buffer":0,
			"byteLength":53064,
			"byteOffset":0,
			"target":34962
		},
		{
			"buffer":0,
			"byteLength":35376,
			"byteOffset":53064,
			"target":34962
		},
		{
			"buffer":0,
			"byteLength":53064,
			"byteOffset":88440,
			"target":34962
		},
		{
			"buffer":0,
			"byteLength":43704,
			"byteOffset":141504,
			"target":34963
		},
		{
			"buffer":0,
			"byteLength":26436,
			"byteOffset":185208,
			"target":34962
		},
		{
			"buffer":0,
			"byteLength":17624,
			"byteOffset":211644,
			"target":34962
		},
		{
			"buffer":0,
			"byteLength":26436,
			"byteOffset":229268,
			"target":34962
		},
		{
			"buffer":0,
			"byteLength":18456,
			"byteOffset":255704,
			"target":34963
		},
		{
			"buffer":0,
			"byteLength":11844,
			"byteOffset":274160,
			"target":34962
		},
		{
			"buffer":0,
			"byteLength":7896,
			"byteOffset":286004,
			"target":34962
		},
		{
			"buffer":0,
			"byteLength":11844,
			"byteOffset":293900,
			"target":34962
		},
		{
			"buffer":0,
			"byteLength":6150,
			"byteOffset":305744,
			"target":34963
		},
		{
			"buffer":0,
			"byteLength":288,
			"byteOffset":311896,
			"target":34962
		},
		{
			"buffer":0,
			"byteLength":192,
			"byteOffset":312184,
			"target":34962
		},
		{
			"buffer":0,
			"byteLength":288,
			"byteOffset":312376,
			"target":34962
		},
		{
			"buffer":0,
			"byteLength":72,
			"byteOffset":312664,
			"target":34963
		},
		{
			"buffer":0,
			"byteLength":37920,
			"byteOffset":312736,
			"target":34962
		},
		{
			"buffer":0,
			"byteLength":25280,
			"byteOffset":350656,
			"target":34962
		},
		{
			"buffer":0,
			"byteLength":37920,
			"byteOffset":375936,
			"target":34962
		},
		{
			"buffer":0,
			"byteLength":12612,
			"byteOffset":413856,
			"target":34963
		},
		{
			"buffer":0,
			"byteLength":37920,
			"byteOffset":426468,
			"target":34962
		},
		{
			"buffer":0,
			"byteLength":25280,
			"byteOffset":464388,
			"target":34962
		},
		{
			"buffer":0,
			"byteLength":37920,
			"byteOffset":489668,
			"target":34962
		},
		{
			"buffer":0,
			"byteLength":37920,
			"byteOffset":527588,
			"target":34962
		},
		{
			"buffer":0,
			"byteLength":25280,
			"byteOffset":565508,
			"target":34962
		},
		{
			"buffer":0,
			"byteLength":37920,
			"byteOffset":590788,
			"target":34962
		}
	],
	"samplers":[
		{
			"magFilter":9728,
			"minFilter":9984
		}
	],
	"buffers":[
		{
			"byteLength":628708,
			"uri":"duck-land.bin"
		}
	]
}
