{
	"asset":{
		"generator":"Khronos glTF Blender I/O v3.5.30",
		"version":"2.0"
	},
	"extensionsUsed":[
		"KHR_materials_ior"
	],
	"scene":0,
	"scenes":[
		{
			"name":"Scene",
			"nodes":[
				0
			]
		}
	],
	"nodes":[
		{
			"mesh":0,
			"name":"ducky.001"
		}
	],
	"materials":[
		{
			"doubleSided":true,
			"extensions":{
				"KHR_materials_specular":{
					"specularColorFactor":[
						0,
						0,
						0
					]
				},
				"KHR_materials_ior":{
					"ior":1.4500000476837158
				}
			},
			"name":"matte.001",
			"pbrMetallicRoughness":{
				"baseColorTexture":{
					"index":0
				},
				"metallicFactor":0,
				"roughnessFactor":0.5
			}
		}
	],
	"meshes":[
		{
			"name":"Cube.001",
			"primitives":[
				{
					"attributes":{
						"POSITION":0,
						"TEXCOORD_0":1,
						"NORMAL":2
					},
					"indices":3,
					"material":0
				}
			]
		}
	],
	"textures":[
		{
			"sampler":0,
			"source":0
		}
	],
	"images":[
		{
			"mimeType":"image/png",
			"name":"palette",
			"uri":"textures/palette.png"
		}
	],
	"accessors":[
		{
			"bufferView":0,
			"componentType":5126,
			"count":2203,
			"max":[
				6.537764549255371,
				18.989383697509766,
				5.318559646606445
			],
			"min":[
				-6.537764549255371,
				0.2747199535369873,
				-5.209059238433838
			],
			"type":"VEC3"
		},
		{
			"bufferView":1,
			"componentType":5126,
			"count":2203,
			"type":"VEC2"
		},
		{
			"bufferView":2,
			"componentType":5126,
			"count":2203,
			"type":"VEC3"
		},
		{
			"bufferView":3,
			"componentType":5123,
			"count":9228,
			"type":"SCALAR"
		}
	],
	"bufferViews":[
		{
			"buffer":0,
			"byteLength":26436,
			"byteOffset":0,
			"target":34962
		},
		{
			"buffer":0,
			"byteLength":17624,
			"byteOffset":26436,
			"target":34962
		},
		{
			"buffer":0,
			"byteLength":26436,
			"byteOffset":44060,
			"target":34962
		},
		{
			"buffer":0,
			"byteLength":18456,
			"byteOffset":70496,
			"target":34963
		}
	],
	"samplers":[
		{
			"magFilter":9728,
			"minFilter":9984
		}
	],
	"buffers":[
		{
			"byteLength":88952,
			"uri":"ducky-lod1.bin"
		}
	]
}
