{
	"asset":{
		"generator":"Khronos glTF Blender I/O v3.5.30",
		"version":"2.0"
	},
	"extensionsUsed":[
		"KHR_materials_ior"
	],
	"scene":0,
	"scenes":[
		{
			"name":"Scene",
			"nodes":[
				0
			]
		}
	],
	"nodes":[
		{
			"mesh":0,
			"name":"ducky"
		}
	],
	"materials":[
		{
			"doubleSided":true,
			"extensions":{
				"KHR_materials_specular":{
					"specularColorFactor":[
						0,
						0,
						0
					]
				},
				"KHR_materials_ior":{
					"ior":1.4500000476837158
				}
			},
			"name":"matte",
			"pbrMetallicRoughness":{
				"baseColorTexture":{
					"index":0
				},
				"metallicFactor":0,
				"roughnessFactor":0.5
			}
		}
	],
	"meshes":[
		{
			"name":"Cube.003",
			"primitives":[
				{
					"attributes":{
						"POSITION":0,
						"TEXCOORD_0":1,
						"NORMAL":2
					},
					"indices":3,
					"material":0
				}
			]
		}
	],
	"textures":[
		{
			"sampler":0,
			"source":0
		}
	],
	"images":[
		{
			"mimeType":"image/png",
			"name":"palette",
			"uri":"textures/palette.png"
		}
	],
	"accessors":[
		{
			"bufferView":0,
			"componentType":5126,
			"count":4422,
			"max":[
				6.537764549255371,
				18.992679595947266,
				5.318828105926514
			],
			"min":[
				-6.537764549255371,
				0.2747199535369873,
				-5.2085089683532715
			],
			"type":"VEC3"
		},
		{
			"bufferView":1,
			"componentType":5126,
			"count":4422,
			"type":"VEC2"
		},
		{
			"bufferView":2,
			"componentType":5126,
			"count":4422,
			"type":"VEC3"
		},
		{
			"bufferView":3,
			"componentType":5123,
			"count":21852,
			"type":"SCALAR"
		}
	],
	"bufferViews":[
		{
			"buffer":0,
			"byteLength":53064,
			"byteOffset":0,
			"target":34962
		},
		{
			"buffer":0,
			"byteLength":35376,
			"byteOffset":53064,
			"target":34962
		},
		{
			"buffer":0,
			"byteLength":53064,
			"byteOffset":88440,
			"target":34962
		},
		{
			"buffer":0,
			"byteLength":43704,
			"byteOffset":141504,
			"target":34963
		}
	],
	"samplers":[
		{
			"magFilter":9728,
			"minFilter":9984
		}
	],
	"buffers":[
		{
			"byteLength":185208,
			"uri":"ducky-lod0.bin"
		}
	]
}
